<?xml version="1.0" encoding="utf-8"?>
<svg width="90" height="88" viewBox="0 0 90 88" fill="none" xmlns="http://www.w3.org/2000/svg">
    <g opacity="1">
        <path d="M68.7258 19.4087L70.835 66.6947H60.8962L60.1593 48.6556L36.6271 83.7765L26.4125 50.8108L10.7785 88.0001H0L27.7374 22.0174L39.9069 61.1718L68.7258 19.4087Z" fill="#DBDFE1"/>
        <path d="M46.4927 0C70.5212 0 90.0001 19.5294 90.0001 43.62C90.0001 61.8483 78.8479 77.4652 63.011 83.9863L63.0109 77.8218C75.6631 71.6682 84.3862 58.6654 84.3862 43.62C84.3862 22.6378 67.4207 5.62839 46.4927 5.62839C25.5647 5.62839 8.59921 22.6378 8.59921 43.62C8.59921 52.3882 11.5619 60.4626 16.5383 66.8919L12.7016 66.8913L12.701 71.0978C6.626 63.5973 2.98535 54.0349 2.98535 43.62C2.98535 19.5294 22.4643 0 46.4927 0Z" fill="#DBDFE1"/>
        <path fill-rule="evenodd" clip-rule="evenodd" d="M63.4854 77.6344L60.8503 76.311H55.0903V85.1331H60.8503L63.4854 83.7763V77.6344Z" fill="#DBDFE1"/>
        <path d="M55.0903 77.6343H49.3599V79.8398H55.0903V77.6343Z" fill="#DBDFE1"/>
        <path d="M55.0903 81.6045H49.3599V83.81H55.0903V81.6045Z" fill="#DBDFE1"/>
    </g>
</svg>
