                    <svg class="stat-item-icon mb-2"  viewBox="0 0 72 72" fill="none" xmlns="http://www.w3.org/2000/svg">
                        <rect width="72" height="72" rx="36" fill="#F9F9F9"/>
                        <g clip-path="url(#clip0_9818_163)">
                            <path d="M32.0918 13.2336C31.993 13.2516 31.6875 13.3145 31.418 13.3684C30.1961 13.6109 28.6778 14.4645 27.8332 15.3898C26.7102 16.6207 26.0364 18.3457 26.0274 20.0168C26.0184 22.8738 27.5637 25.8117 31.0137 29.5313C32.011 30.6004 32.3973 30.8789 32.9004 30.8789C33.4125 30.8789 33.8079 30.5914 34.895 29.4055C39.2075 24.7246 40.5731 21.0859 39.3243 17.6449C38.5606 15.5695 36.9164 14.0691 34.7332 13.4492C34.0954 13.2695 32.4961 13.1348 32.0918 13.2336ZM33.9786 15.3809C35.8024 15.848 37.159 17.2137 37.5813 18.9926C38.1383 21.3465 36.7996 24.2754 33.5563 27.7883L32.8825 28.516L32.6668 28.2645C32.55 28.1297 32.0559 27.5637 31.5618 26.9977C28.2375 23.1793 27.3481 20.3133 28.6957 17.7348C29.2707 16.6477 30.5375 15.6773 31.8043 15.3719C32.4512 15.2191 33.3496 15.2191 33.9786 15.3809Z" fill="#0B0D21"/>
                            <path d="M31.6695 16.3781C31.0676 16.5578 30.1691 17.1957 29.7828 17.7168C29.1988 18.4805 29.0461 19.0016 29.0371 20.1426C29.0371 21.068 29.0551 21.1668 29.3246 21.7418C30.5285 24.2844 33.8258 24.8414 35.7395 22.8199C36.7098 21.7957 37.0512 20.3133 36.6379 18.9476C36.2785 17.7527 35.2453 16.7105 34.0773 16.3691C33.5203 16.1984 32.2266 16.2074 31.6695 16.3781ZM33.7359 18.4715C34.9848 19.1094 35.1016 20.8254 33.9516 21.6519C33.6461 21.8766 33.4574 21.9394 33.0082 21.9664C32.3164 22.0023 31.7684 21.7508 31.373 21.1937C31.0406 20.7086 30.9508 19.8461 31.1934 19.3699C31.7055 18.3547 32.7746 17.9773 33.7359 18.4715Z" fill="#0B0D21"/>
                            <path d="M21.8228 19.4238C20.3404 19.6934 18.4357 20.5109 16.8545 21.5531C15.7853 22.2629 13.8717 23.7992 13.5752 24.1945C12.9373 25.0211 12.8025 26.3777 13.2607 27.3301C13.5662 27.9859 14.249 28.6418 14.9588 28.9742C15.408 29.1898 15.5787 29.2168 16.4142 29.2168C17.3576 29.2168 17.3666 29.2168 19.0467 28.6059C19.981 28.2645 20.8795 27.968 21.0502 27.941C21.7689 27.8242 22.6494 28.4891 22.883 29.3156C23.1166 30.1242 22.8111 32.2356 22.272 33.5742C22.1193 33.9426 21.7959 34.6344 21.5533 35.1016C20.8076 36.5031 20.6818 37.0512 20.6818 38.7402C20.6908 40.0699 20.7088 40.2945 21.0322 41.7051C21.6611 44.5262 22.6224 47.5539 23.0537 48.066C23.5029 48.5961 24.3474 48.8117 24.9853 48.5422C25.2818 48.4164 25.2998 48.4164 25.3896 48.65C25.4435 48.7848 25.5244 49.1531 25.5783 49.4676C25.7041 50.1863 26.0185 50.8152 26.4588 51.2555C26.9529 51.7406 29.747 53.6094 30.2861 53.807C30.5556 53.9148 31.0318 53.9957 31.4451 54.0137C31.9213 54.0316 32.2177 54.0945 32.3885 54.2023C32.5232 54.2922 33.6552 55.2356 34.9041 56.2957C36.1529 57.3648 37.3748 58.3531 37.6084 58.4879C38.1295 58.7844 38.7763 58.8832 39.2974 58.7395C39.7017 58.6316 40.9685 57.8051 41.6963 57.1941C42.9631 56.0981 42.5947 54.6875 40.9685 54.427C40.4205 54.3371 40.0342 54.1844 39.5759 53.8609C39.3783 53.7262 39.3424 53.6453 39.3873 53.4027C39.5131 52.6301 38.992 51.7856 38.1385 51.3813C37.824 51.2285 37.5006 51.0848 37.4197 51.0578C37.2759 51.0129 37.2849 50.968 37.4826 50.5098C37.9947 49.3598 37.5634 48.2098 36.4853 47.8594C35.9193 47.6707 35.3892 47.7875 34.4908 48.2996C33.5564 48.8387 33.233 48.8746 33.0892 48.4703C33.0174 48.2727 33.0713 48.057 33.3498 47.3473C33.7451 46.3231 34.2033 45.784 34.7873 45.6223C35.2365 45.5055 36.8357 45.3438 37.5365 45.3438C38.0576 45.3438 38.0666 45.3527 38.2373 45.6852C38.6326 46.4578 39.1896 46.8172 39.9982 46.8172C40.4115 46.8262 40.6361 46.7723 40.9416 46.6016C41.4537 46.3141 41.6963 45.9367 41.9838 44.9934C42.442 43.5109 42.7474 43.0887 43.9424 42.316C45.0115 41.6152 45.5865 41.0313 46.1345 40.0879C46.7095 39.1086 47.0959 38.7492 48.5064 37.9047C50.0068 37.0152 50.8693 36.575 52.2888 35.991C53.8342 35.3531 54.0498 35.1106 54.1396 33.8887C54.1935 33.1969 54.2025 33.1699 54.4271 33.143C54.5978 33.125 54.7056 33.1789 54.8045 33.3406C55.2177 33.9606 55.9185 34.3738 56.5744 34.3828C57.383 34.3828 58.3263 33.727 58.7486 32.8645C58.9103 32.55 58.9642 32.2535 58.9822 31.6336L59.0181 30.816L58.1916 28.8215C57.7334 27.7344 57.2482 26.6563 57.1045 26.4316C56.6193 25.668 55.5592 25.2188 54.6517 25.3895L54.2025 25.4703L53.8252 25.084C53.5826 24.8324 53.34 24.6707 53.1424 24.6348C52.9806 24.6078 52.2619 24.6168 51.5431 24.6617C49.8361 24.7695 49.6384 24.8594 48.74 25.9824C48.4615 26.3238 48.0931 26.7551 47.9045 26.9258C47.7248 27.0965 47.4373 27.4379 47.2576 27.6715L46.9431 28.1027L46.5209 27.7074C46.2424 27.4469 45.883 27.2313 45.4338 27.0606C44.3377 26.6473 44.3287 26.6563 46.0357 26.0813C47.8236 25.4703 48.9287 24.9582 49.7912 24.3293C50.6177 23.7273 50.9142 23.2332 50.9142 22.4516C50.9142 21.7688 50.7435 21.3285 50.3123 20.8883C49.5756 20.1336 48.2908 20.0797 46.3052 20.7176L45.1552 21.0949L43.2416 21.032L41.3369 20.9691L41.0224 21.2477C40.7529 21.4902 40.717 21.5711 40.717 21.9844C40.717 22.3887 40.7529 22.4785 41.0045 22.7031C41.3459 23.0086 41.7861 23.0625 44.1759 23.0895L45.7482 23.1074L46.8713 22.7391C48.1111 22.3258 48.5783 22.227 48.767 22.3438C48.8299 22.3887 48.8658 22.4426 48.8478 22.4606C48.165 23.0266 47.1588 23.5027 45.308 24.1406C43.5291 24.7426 43.0978 24.9852 42.7744 25.5422C42.1095 26.6742 42.6217 28.1297 43.8615 28.6508C44.0592 28.7316 44.4095 28.8844 44.6521 28.9832L45.0744 29.1629V29.7289C45.0744 30.6633 45.5416 31.1484 46.449 31.1484C47.2576 31.1484 47.5361 30.9418 48.3357 29.7559C48.6322 29.3066 49.1263 28.6777 49.4408 28.3453C49.7463 28.0219 50.1685 27.5188 50.3752 27.2492L50.7525 26.7461H51.3185C51.624 26.7461 52.0013 26.7191 52.1451 26.6922C52.3787 26.6473 52.4326 26.6832 52.6392 26.9977C53.0525 27.6176 53.8252 27.8063 54.7236 27.5008C55.1369 27.357 55.1638 27.357 55.3166 27.5188C55.4064 27.6176 55.8287 28.534 56.2599 29.5672C57.0685 31.5168 57.0955 31.6426 56.79 32.1188L56.6552 32.3254L56.2599 31.8852C55.7119 31.2742 55.1189 31.0316 54.3373 31.0766C53.0345 31.1574 52.208 31.966 52.0912 33.2867L52.0373 33.8617L51.3185 34.1492C50.2853 34.5715 48.7131 35.3711 47.3744 36.1617C45.9189 37.0242 45.1013 37.7789 44.4994 38.7852C43.8974 39.8004 43.6549 40.0609 42.7834 40.582C41.4627 41.3816 40.4654 42.6754 40.124 44.0141C40.0701 44.2566 39.9982 44.4453 39.9623 44.4453C39.9353 44.4453 39.8095 44.3016 39.6927 44.1219C39.1627 43.3582 38.408 43.1785 36.3056 43.3582C34.0506 43.5559 33.3138 43.8074 32.5322 44.643C32.101 45.1012 31.499 46.2691 31.1486 47.3203C30.7802 48.3984 31.0049 49.4137 31.7506 50.1145C32.3256 50.6625 32.622 50.7793 33.4935 50.7793C34.1853 50.7793 34.3111 50.7523 34.8052 50.4918L35.3533 50.2043L35.1736 50.6176C35.0388 50.9231 35.0029 51.1566 35.0299 51.516C35.1017 52.3246 35.4791 52.693 36.5752 52.9984L37.2939 53.2051L37.267 53.6992C37.24 54.3012 37.3568 54.6426 37.7342 55.0289C38.0396 55.3434 39.2256 56.125 39.3963 56.125C39.5939 56.125 39.5041 56.2598 39.1357 56.5113C38.9381 56.6551 38.7314 56.7539 38.6685 56.727C38.6056 56.7 37.6892 55.9453 36.6291 55.0379C33.5295 52.3965 33.4845 52.3695 32.9724 52.1719C32.658 52.0551 32.2717 51.9922 31.8584 51.9922C31.4541 51.9922 31.1306 51.9383 30.942 51.8395C30.358 51.543 27.9052 49.809 27.7705 49.6023C27.6896 49.4856 27.5908 49.1262 27.5549 48.8027C27.447 47.9582 26.5935 46.368 26.0365 45.9996C25.6502 45.7391 25.1021 45.7301 24.7068 45.9727L24.4193 46.1434L24.051 45.0023C23.2783 42.6125 22.6763 39.8184 22.6763 38.6953C22.6674 37.716 22.8381 37.15 23.5568 35.7305C24.4552 33.9426 24.8685 32.4422 25.0033 30.5465C25.165 28.1027 23.9431 26.3238 21.8318 25.9465C21.0142 25.7938 20.5111 25.8926 18.5705 26.5844C17.4385 26.9887 16.6838 27.2133 16.4412 27.2133C15.6416 27.2133 14.8689 26.4766 15.0217 25.8656C15.0935 25.5602 15.7224 24.9672 16.9892 24.0148C19.1904 22.3527 21.4994 21.3555 23.1525 21.3555C23.9881 21.3555 24.3834 21.2207 24.59 20.8793C24.8775 20.4211 24.8236 19.9539 24.4642 19.5945C24.1588 19.2891 24.1588 19.2891 23.3232 19.298C22.856 19.298 22.1822 19.3609 21.8228 19.4238Z" fill="#0B0D21"/>
                        </g>
                        <defs>
                        <clipPath id="clip0_9818_163">
                        <rect width="46" height="46" fill="white" transform="translate(13 13)"/>
                        </clipPath>
                        </defs>
                    </svg>