<?xml version="1.0" encoding="utf-8"?>
<svg viewBox="0 0 139 136" fill="none" xmlns="http://www.w3.org/2000/svg">
    <path d="M105.686 29.8408L108.929 102.543H93.6452L92.512 74.8081L56.3245 128.807L40.6167 78.1217L16.5751 135.301H0L42.6541 33.8518L61.3682 94.052L105.686 29.8408Z" fill="#F9F9F9"/>
    <path d="M71.4958 0C108.446 0 138.401 30.0265 138.401 67.0661C138.401 95.0923 121.251 119.103 96.8973 129.13L96.8971 119.652C116.354 110.19 129.768 90.1985 129.768 67.0661C129.768 34.8058 103.679 8.65369 71.4958 8.65369C39.313 8.65369 13.2237 34.8058 13.2237 67.0661C13.2237 80.5472 17.7796 92.9617 25.4323 102.847L19.5324 102.846L19.5313 109.313C10.1893 97.7814 4.59082 83.0791 4.59082 67.0661C4.59082 30.0265 34.5452 0 71.4958 0Z" fill="#F9F9F9"/>
    <path fill-rule="evenodd" clip-rule="evenodd" d="M97.6267 119.363L93.5744 117.328H84.7168V130.892H93.5744L97.6267 128.806V119.363Z" fill="#F9F9F9"/>
    <path d="M84.7175 119.363H75.9053V122.754H84.7175V119.363Z" fill="#F9F9F9"/>
    <path d="M84.7175 125.468H75.9053V128.859H84.7175V125.468Z" fill="#F9F9F9"/>
</svg>
