<?xml version="1.0" encoding="utf-8"?>
<svg width="14" height="16" viewBox="0 0 14 16" fill="none" xmlns="http://www.w3.org/2000/svg">
    <path fill-rule="evenodd" clip-rule="evenodd" d="M7 0C7 0 14 7 14 10.5C14 14 11 16 7 16C3.00003 16 0 14 0 10.5C0 7.00506 6.9798 0.0202042 7 0ZM7.00977 9.65039C6.70626 9.96428 6.38936 10.3254 6.09473 10.7148C5.32202 11.7364 5 12.5564 5 13C5 13.2567 5.05446 13.3797 5.08496 13.4336C5.11721 13.4904 5.17659 13.5643 5.30957 13.6475C5.5805 13.8168 6.05746 13.9601 6.70996 13.9932L7 14C7.80182 14 8.41983 13.8419 8.76562 13.6328C8.91785 13.5407 8.98488 13.4584 9.01855 13.4014C9.04852 13.3505 9.10059 13.2387 9.10059 13C9.10059 12.5792 8.77659 11.7689 7.97266 10.7373C7.66301 10.34 7.32875 9.97146 7.00977 9.65039ZM7 2.91797C6.42669 3.55178 5.74189 4.33608 5.06152 5.18652C4.21838 6.24044 3.414 7.35315 2.83008 8.375C2.20407 9.4705 2 10.1775 2 10.5C2 11.5087 2.36841 12.2517 3.00684 12.8057C3.15182 10.5907 5.70482 7.91069 7 7C8.27903 7.89935 10.8754 10.5242 11.085 12.7227C11.6666 12.178 12 11.4592 12 10.5C12 10.1775 11.7959 9.4705 11.1699 8.375C10.586 7.35315 9.78161 6.24043 8.93848 5.18652C8.25811 4.33608 7.57331 3.55178 7 2.91797Z" fill="#0B0D21"/>
</svg>
