<?xml version="1.0" encoding="utf-8"?>
<svg width="123" height="120" viewBox="0 0 123 120" fill="none" xmlns="http://www.w3.org/2000/svg">
    <g clip-path="url(#clip0_8294_13)">
        <path d="M93.9545 26.4663L96.838 90.9472H83.2507L82.2432 66.3484L50.0725 114.24L36.1082 69.2873L14.7353 120H0L37.9195 30.0237L54.5564 83.416L93.9545 26.4663Z" fill="#0B0D21"/>
        <path d="M63.5598 0C96.4089 0 123.038 26.6309 123.038 59.4818C123.038 84.3386 107.792 105.634 86.1418 114.527L86.1417 106.121C103.438 97.7292 115.364 79.9983 115.364 59.4818C115.364 30.8697 92.1703 7.67507 63.5598 7.67507C34.9493 7.67507 11.7559 30.8697 11.7559 59.4818C11.7559 71.4384 15.8062 82.4489 22.6094 91.2161L17.3643 91.2153L17.3634 96.9514C9.05839 86.7236 4.0813 73.684 4.0813 59.4818C4.0813 26.6309 30.7107 0 63.5598 0Z" fill="#0B0D21"/>
    </g>
    <g clip-path="url(#clip1_8294_13)">
        <path d="M93.9545 26.4663L96.838 90.9472H83.2507L82.2432 66.3484L50.0725 114.24L36.1082 69.2873L14.7353 120H0L37.9195 30.0237L54.5564 83.416L93.9545 26.4663Z" fill="white"/>
        <path d="M63.5598 0C96.4089 0 123.038 26.6309 123.038 59.4818C123.038 84.3386 107.792 105.634 86.1418 114.527L86.1417 106.121C103.438 97.7292 115.364 79.9983 115.364 59.4818C115.364 30.8697 92.1703 7.67507 63.5598 7.67507C34.9493 7.67507 11.7559 30.8697 11.7559 59.4818C11.7559 71.4384 15.8062 82.4489 22.6094 91.2161L17.3643 91.2153L17.3634 96.9514C9.05839 86.7236 4.0813 73.684 4.0813 59.4818C4.0813 26.6309 30.7107 0 63.5598 0Z" fill="white"/>
        <path fill-rule="evenodd" clip-rule="evenodd" d="M86.7909 105.865L83.1884 104.06H75.314V116.09H83.1884L86.7909 114.24V105.865Z" fill="white"/>
        <path d="M75.3135 105.865H67.4795V108.873H75.3135V105.865Z" fill="white"/>
        <path d="M75.3135 111.279H67.4795V114.286H75.3135V111.279Z" fill="white"/>
    </g>
    <defs>
        <clipPath id="clip0_8294_13">
            <rect width="62" height="120" fill="white"/>
        </clipPath>
        <clipPath id="clip1_8294_13">
            <rect width="61" height="120" fill="white" transform="translate(62)"/>
        </clipPath>
    </defs>
</svg>
