<?xml version="1.0" encoding="utf-8"?>
<svg width="140" height="136" viewBox="0 0 140 136" fill="none" xmlns="http://www.w3.org/2000/svg">
    <path d="M106.285 29.9951L109.547 103.074H94.1766L93.037 75.1948L56.6441 129.473L40.8471 78.5256L16.6691 136H0L42.8961 34.0268L61.7164 94.5382L106.285 29.9951Z" fill="white"/>
    <path d="M71.9013 0C109.062 0 139.186 30.1817 139.186 67.4128C139.186 95.5838 121.939 119.719 97.447 129.797L97.4468 120.27C117.014 110.76 130.504 90.6648 130.504 67.4128C130.504 34.9857 104.267 8.69842 71.9013 8.69842C39.5359 8.69842 13.2986 34.9857 13.2986 67.4128C13.2986 80.9636 17.8804 93.4422 25.5765 103.378L19.643 103.377L19.642 109.878C10.247 98.2868 4.6167 83.5085 4.6167 67.4128C4.6167 30.1817 34.741 0 71.9013 0Z" fill="white"/>
    <path fill-rule="evenodd" clip-rule="evenodd" d="M98.1809 119.98L94.1056 117.935H85.1978V131.569H94.1056L98.1809 129.473V119.98Z" fill="white"/>
    <path d="M85.1981 119.981H76.3359V123.389H85.1981V119.981Z" fill="white"/>
    <path d="M85.1981 126.117H76.3359V129.525H85.1981V126.117Z" fill="white"/>
</svg>
