<svg viewBox="0 0 98 35" fill="none" xmlns="http://www.w3.org/2000/svg">
    <g clip-path="url(#clip0_9923_100)">
        <path d="M28.8516 8.14233L29.737 27.9798H25.5646L25.2553 20.412L15.3763 35.1459L11.0881 21.3161L4.52491 36.9178H0L11.6443 9.23675L16.7532 25.6628L28.8516 8.14233Z" fill="black"/>
        <path d="M19.5181 0C29.6054 0 37.7828 8.19296 37.7828 18.2995C37.7828 25.9466 33.101 32.4982 26.4526 35.234L26.4525 32.6478C31.764 30.0662 35.4261 24.6113 35.4261 18.2995C35.4261 9.49702 28.3038 2.36122 19.5181 2.36122C10.7324 2.36122 3.61015 9.49702 3.61015 18.2995C3.61015 21.9779 4.8539 25.3653 6.94304 28.0625L5.33238 28.0622L5.3321 29.8269C2.78179 26.6804 1.25342 22.6687 1.25342 18.2995C1.25342 8.19296 9.4308 0 19.5181 0Z" fill="black"/>
        <path fill-rule="evenodd" clip-rule="evenodd" d="M26.6518 32.5693L25.5455 32.0142H23.1274V35.7152H25.5455L26.6518 35.146V32.5693Z" fill="black"/>
        <path d="M23.1274 32.5693H20.7217V33.4946H23.1274V32.5693Z" fill="black"/>
        <path d="M23.1274 34.2349H20.7217V35.1601H23.1274V34.2349Z" fill="black"/>
        <path d="M48.3866 14.9814L47.5864 13.1723L47.2211 14.9814L46.0382 20.9479H44.1074L46.7514 8.1626H46.9602L50.474 15.0684L51.5176 17.3819L52.5613 15.0684L56.0055 8.1626H56.1969L58.9453 20.9479H57.0318L55.7446 14.9814L55.3619 13.1723L54.6661 14.9814L51.5698 20.9479H51.4655L48.3866 14.9814ZM63.9425 21.1218C63.2235 21.1218 62.5596 20.9508 61.9508 20.6087C61.3419 20.2666 60.8549 19.7795 60.4896 19.1475C60.1243 18.5155 59.9416 17.7762 59.9416 16.9296C59.9416 16.0947 60.1011 15.3641 60.42 14.7379C60.7389 14.1117 61.1941 13.6246 61.7855 13.2767C62.3769 12.9288 63.0727 12.7549 63.8729 12.7549C64.3368 12.7549 64.7716 12.836 65.1775 12.9984C65.5834 13.1607 65.9255 13.3608 66.2038 13.5985C66.4821 13.8362 66.6677 14.0711 66.7605 14.303L66.7952 12.9636H68.5869V20.9479H66.8126L66.7779 19.5389C66.5807 19.9564 66.2212 20.3246 65.6994 20.6435C65.1775 20.9624 64.5919 21.1218 63.9425 21.1218ZM64.2556 19.5563C64.9166 19.5563 65.4732 19.3273 65.9255 18.8692C66.3778 18.4111 66.6039 17.811 66.6039 17.0688V16.947C66.6039 16.4484 66.4995 16.0019 66.2908 15.6076C66.0821 15.2133 65.7979 14.906 65.4384 14.6857C65.0789 14.4654 64.6847 14.3552 64.2556 14.3552C63.5134 14.3552 62.9394 14.5958 62.5335 15.0771C62.1276 15.5584 61.9247 16.1817 61.9247 16.947C61.9247 17.724 62.1247 18.3531 62.5248 18.8344C62.9249 19.3157 63.5018 19.5563 64.2556 19.5563ZM70.654 12.9636H72.5327V14.5291C72.7182 13.9957 73.0197 13.5666 73.4372 13.2419C73.8547 12.9172 74.3302 12.7549 74.8636 12.7549C75.2347 12.7549 75.4898 12.7897 75.629 12.8592L75.3681 14.7553C75.2637 14.6857 75.0376 14.6509 74.6897 14.6509C74.1446 14.6509 73.6489 14.8249 73.2024 15.1728C72.7559 15.5207 72.5327 16.0773 72.5327 16.8427V20.9479H70.654V12.9636ZM76.6214 12.9636H78.761L80.4831 16.5644L81.0398 18.0081L81.5964 16.5644L83.3011 12.9636H85.3885L81.1963 20.9479H80.831L76.6214 12.9636ZM90.1547 21.1218C89.2038 21.1218 88.4094 20.9334 87.7716 20.5565C87.1338 20.1796 86.6641 19.6752 86.3626 19.0431C86.0611 18.4111 85.9103 17.7182 85.9103 16.9644C85.9103 16.1179 86.0872 15.3757 86.4409 14.7379C86.7946 14.1001 87.2845 13.6101 87.9108 13.268C88.537 12.9259 89.2444 12.7549 90.0329 12.7549C91.2622 12.7549 92.1754 13.0941 92.7727 13.7725C93.3699 14.4509 93.6685 15.4047 93.6685 16.6339C93.6685 16.947 93.6511 17.2717 93.6163 17.6081H87.876C88.0035 18.3155 88.2558 18.8257 88.6327 19.1388C89.0095 19.4519 89.5343 19.6085 90.2069 19.6085C90.7635 19.6085 91.2216 19.5621 91.5811 19.4693C91.9406 19.3765 92.2711 19.249 92.5726 19.0866L93.1466 20.426C92.8567 20.6116 92.4624 20.7739 91.9638 20.9131C91.4651 21.0523 90.8621 21.1218 90.1547 21.1218ZM91.842 16.3034C91.8536 15.5844 91.6971 15.0771 91.3724 14.7814C91.0476 14.4857 90.5838 14.3378 89.9808 14.3378C88.7631 14.3378 88.0615 14.993 87.876 16.3034H91.842ZM95.7907 8.1626H97.6519V20.9479H95.7907V8.1626ZM43.9214 24.7854H45.2038C45.5209 24.7854 45.7595 24.8833 45.9196 25.0791C46.0797 25.275 46.1598 25.5128 46.1598 25.7926C46.1598 26.0724 46.0797 26.3095 45.9196 26.5038C45.7595 26.6981 45.5209 26.7952 45.2038 26.7952H44.3597V27.9984H43.9214V24.7854ZM45.1991 25.1911H44.3597V26.3895H45.1758C45.3592 26.3895 45.4968 26.3312 45.5885 26.2147C45.6802 26.0981 45.7261 25.9574 45.7261 25.7926C45.7261 25.6279 45.6818 25.4864 45.5932 25.3683C45.5046 25.2501 45.3732 25.1911 45.1991 25.1911ZM46.9264 26.3989C46.9264 25.9387 47.0834 25.5486 47.3974 25.2284C47.7114 24.9082 48.0954 24.748 48.5493 24.748C49.0063 24.748 49.3926 24.9082 49.7081 25.2284C50.0237 25.5486 50.1815 25.9387 50.1815 26.3989C50.1815 26.8559 50.0237 27.2445 49.7081 27.5647C49.3926 27.8849 49.0063 28.045 48.5493 28.045C48.0954 28.045 47.7114 27.8849 47.3974 27.5647C47.0834 27.2445 46.9264 26.8559 46.9264 26.3989ZM47.7052 25.5268C47.4752 25.7662 47.3601 26.0569 47.3601 26.3989C47.3601 26.7408 47.4744 27.0307 47.7029 27.2686C47.9314 27.5064 48.2135 27.6253 48.5493 27.6253C48.885 27.6253 49.168 27.5064 49.398 27.2686C49.6281 27.0307 49.7431 26.7408 49.7431 26.3989C49.7431 26.0569 49.6281 25.7662 49.398 25.5268C49.168 25.2874 48.885 25.1677 48.5493 25.1677C48.2166 25.1677 47.9353 25.2874 47.7052 25.5268ZM54.4036 24.7854H54.87L53.7834 27.9984H53.4057L52.8368 25.9932L52.2725 27.9984H51.8948L50.8082 24.7854H51.2745L52.0813 27.2989L52.6735 25.219H53.0046L53.5969 27.2989L54.4036 24.7854ZM55.7672 24.7854H57.6698V25.1911H56.2009V26.217H57.4833V26.6227H56.2009V27.5927H57.7165V27.9984H55.7672V24.7854ZM60.1386 26.7813L60.9967 27.9984H60.4697L59.6396 26.7952H59.2293V27.9984H58.7909V24.7854H60.0267C60.3438 24.7854 60.5816 24.8833 60.7402 25.0791C60.8987 25.275 60.978 25.5128 60.978 25.7926C60.978 26.0538 60.9088 26.2776 60.7705 26.4642C60.6322 26.6507 60.4215 26.7564 60.1386 26.7813ZM60.0127 25.1911H59.2293V26.3895H59.9941C60.1775 26.3895 60.3127 26.332 60.3998 26.217C60.4868 26.102 60.5303 25.9605 60.5303 25.7926C60.5303 25.6279 60.4876 25.4864 60.4021 25.3683C60.3166 25.2501 60.1868 25.1911 60.0127 25.1911ZM66.1674 25.1724L65.855 25.4615C65.6311 25.2626 65.3731 25.1631 65.0808 25.1631C64.7482 25.1631 64.4668 25.2836 64.2368 25.5245C64.0067 25.7654 63.8917 26.0569 63.8917 26.3989C63.8917 26.7408 64.0067 27.0315 64.2368 27.2709C64.4668 27.5103 64.7482 27.63 65.0808 27.63C65.3731 27.63 65.614 27.5515 65.8037 27.3945C65.9933 27.2375 66.0943 27.0269 66.1068 26.7626H65.1928V26.3849H66.6011C66.6011 26.9352 66.4658 27.3494 66.1954 27.6277C65.9249 27.9059 65.5534 28.045 65.0808 28.045C64.6269 28.045 64.243 27.8849 63.929 27.5647C63.615 27.2445 63.458 26.8559 63.458 26.3989C63.458 25.9387 63.615 25.5486 63.929 25.2284C64.243 24.9082 64.6269 24.748 65.0808 24.748C65.5005 24.748 65.8627 24.8895 66.1674 25.1724ZM68.93 26.7813L69.788 27.9984H69.2611L68.431 26.7952H68.0206V27.9984H67.5823V24.7854H68.818C69.1351 24.7854 69.373 24.8833 69.5315 25.0791C69.6901 25.275 69.7694 25.5128 69.7694 25.7926C69.7694 26.0538 69.7002 26.2776 69.5618 26.4642C69.4235 26.6507 69.2129 26.7564 68.93 26.7813ZM68.8041 25.1911H68.0206V26.3895H68.7854C68.9688 26.3895 69.1041 26.332 69.1911 26.217C69.2782 26.102 69.3217 25.9605 69.3217 25.7926C69.3217 25.6279 69.2789 25.4864 69.1934 25.3683C69.1079 25.2501 68.9782 25.1911 68.8041 25.1911ZM70.6479 26.3989C70.6479 25.9387 70.8049 25.5486 71.1189 25.2284C71.4329 24.9082 71.8169 24.748 72.2708 24.748C72.7278 24.748 73.1141 24.9082 73.4296 25.2284C73.7452 25.5486 73.9029 25.9387 73.9029 26.3989C73.9029 26.8559 73.7452 27.2445 73.4296 27.5647C73.1141 27.8849 72.7278 28.045 72.2708 28.045C71.8169 28.045 71.4329 27.8849 71.1189 27.5647C70.8049 27.2445 70.6479 26.8559 70.6479 26.3989ZM71.4267 25.5268C71.1967 25.7662 71.0816 26.0569 71.0816 26.3989C71.0816 26.7408 71.1959 27.0307 71.4244 27.2686C71.6529 27.5064 71.935 27.6253 72.2708 27.6253C72.6065 27.6253 72.8894 27.5064 73.1195 27.2686C73.3496 27.0307 73.4646 26.7408 73.4646 26.3989C73.4646 26.0569 73.3496 25.7662 73.1195 25.5268C72.8894 25.2874 72.6065 25.1677 72.2708 25.1677C71.9381 25.1677 71.6568 25.2874 71.4267 25.5268ZM75.579 27.4201C75.722 27.5569 75.8961 27.6253 76.1012 27.6253C76.3064 27.6253 76.4805 27.5569 76.6235 27.4201C76.7666 27.2833 76.8381 27.1077 76.8381 26.8932V24.7854H77.2764V26.8932C77.2764 27.2352 77.1622 27.5126 76.9337 27.7256C76.7052 27.9385 76.4277 28.045 76.1012 28.045C75.7748 28.045 75.4974 27.9385 75.2688 27.7256C75.0403 27.5126 74.9261 27.2352 74.9261 26.8932V24.7854H75.3644V26.8932C75.3644 27.1077 75.4359 27.2833 75.579 27.4201ZM79.7918 24.7854C80.1089 24.7854 80.3475 24.8833 80.5076 25.0791C80.6677 25.275 80.7478 25.5128 80.7478 25.7926C80.7478 26.0724 80.6677 26.3095 80.5076 26.5038C80.3475 26.6981 80.1089 26.7952 79.7918 26.7952H78.9478V27.9984H78.5094V24.7854H79.7918ZM79.7872 25.1911H78.9478V26.3895H79.7638C79.9473 26.3895 80.0848 26.3312 80.1765 26.2147C80.2683 26.0981 80.3141 25.9574 80.3141 25.7926C80.3141 25.6279 80.2698 25.4864 80.1812 25.3683C80.0926 25.2501 79.9613 25.1911 79.7872 25.1911Z" fill="black"/>
    </g>
    <defs>
        <clipPath id="clip0_9923_100">
            <rect width="98" height="34.5042" fill="white"/>
        </clipPath>
    </defs>
</svg>