<?xml version="1.0" encoding="utf-8"?>
   <svg class="service-icons mb-2 mb-lg-0" viewBox="0 0 48 48" fill="none" xmlns="http://www.w3.org/2000/svg">
                        <path d="M17.4468 42.4L22.4668 47.42C22.8415 47.7925 23.3484 48.0016 23.8768 48.0016C24.4052 48.0016 24.9121 47.7925 25.2868 47.42C25.4742 47.234 25.623 47.0128 25.7246 46.7691C25.8261 46.5254 25.8784 46.264 25.8784 46C25.8784 45.7359 25.8261 45.4745 25.7246 45.2308C25.623 44.9871 25.4742 44.7659 25.2868 44.58L20.2868 39.58C20.2202 39.4903 20.1843 39.3816 20.1843 39.27C20.1843 39.1583 20.2202 39.0496 20.2868 38.96C21.2585 37.4292 21.8368 35.6819 21.9702 33.8736C22.1036 32.0654 21.7879 30.2522 21.0512 28.5954C20.3145 26.9386 19.1797 25.4896 17.7477 24.3774C16.3158 23.2651 14.6311 22.524 12.8435 22.2202C11.056 21.9163 9.22108 22.059 7.50201 22.6356C5.78295 23.2122 4.23307 24.2048 2.9903 25.525C1.74752 26.8453 0.850378 28.4523 0.378705 30.2031C-0.0929671 31.9539 -0.124544 33.7941 0.286783 35.56C0.737031 37.5585 1.74136 39.3896 3.18462 40.8435C4.62788 42.2974 6.45163 43.3151 8.44678 43.78C9.88192 44.1134 11.3691 44.1578 12.8216 43.9106C14.2741 43.6634 15.6628 43.1295 16.9068 42.34C16.9923 42.2942 17.0897 42.2755 17.1861 42.2862C17.2825 42.2969 17.3734 42.3366 17.4468 42.4ZM10.9468 40C9.55977 39.9999 8.20404 39.5878 7.05163 38.816C5.89922 38.0441 5.00209 36.9473 4.47408 35.6647C3.94608 34.3821 3.811 32.9716 4.086 31.6121C4.361 30.2526 5.03366 29.0055 6.01864 28.029C7.00362 27.0524 8.25651 26.3905 9.6183 26.1272C10.9801 25.864 12.3894 26.0112 13.6674 26.5502C14.9454 27.0892 16.0344 27.9958 16.7963 29.1548C17.5583 30.3138 17.9587 31.673 17.9468 33.06C17.931 34.9061 17.1865 36.6712 15.8754 37.971C14.5644 39.2708 12.7929 40 10.9468 40Z" fill="white"/>
                        <path d="M47.9468 37V8.82C47.9423 7.76085 47.518 6.7467 46.7668 6L41.9468 1.18C41.2001 0.428824 40.1859 0.00446558 39.1268 0L15.9468 0C14.8859 0 13.8685 0.421427 13.1184 1.17157C12.3682 1.92172 11.9468 2.93913 11.9468 4V18.6C11.9464 18.7207 11.9914 18.8371 12.0729 18.926C12.1545 19.015 12.2665 19.0699 12.3868 19.08C13.3775 19.1939 14.3552 19.4015 15.3068 19.7C15.3798 19.7258 15.4579 19.7336 15.5346 19.7227C15.6112 19.7117 15.6841 19.6824 15.747 19.6372C15.8099 19.5921 15.8609 19.5323 15.8957 19.4632C15.9304 19.394 15.948 19.3174 15.9468 19.24V5C15.9468 4.73478 16.0521 4.48043 16.2397 4.29289C16.4272 4.10536 16.6816 4 16.9468 4H38.7068C38.8379 3.9984 38.968 4.02427 39.0885 4.07593C39.2091 4.1276 39.3175 4.20393 39.4068 4.3L43.6468 8.54C43.7429 8.62929 43.8192 8.7377 43.8708 8.85826C43.9225 8.97882 43.9484 9.10885 43.9468 9.24V36C43.9468 36.2652 43.8414 36.5196 43.6539 36.7071C43.4664 36.8946 43.212 37 42.9468 37H24.7068C24.6045 37.0028 24.5056 37.0369 24.4234 37.0977C24.3411 37.1585 24.2795 37.2431 24.2468 37.34C24.0277 38.0307 23.7466 38.7001 23.4068 39.34C23.3465 39.4943 23.3465 39.6657 23.4068 39.82L24.3268 40.72C24.4841 40.8714 24.6891 40.9633 24.9068 40.98H43.9468C45.0042 40.98 46.0186 40.5613 46.7682 39.8155C47.5177 39.0697 47.9415 38.0574 47.9468 37Z" fill="white"/>
                        <path d="M22.487 24.96C22.86 25.0335 23.2463 24.9992 23.6005 24.861C23.9547 24.7229 24.2623 24.4866 24.487 24.18L27.787 19.54C27.8565 19.4345 27.9647 19.3607 28.0883 19.3345C28.2118 19.3083 28.3407 19.3318 28.447 19.4L31.467 21.2C31.8531 21.4389 32.3089 21.5393 32.7596 21.4848C33.2103 21.4303 33.629 21.224 33.947 20.9L34.147 20.66L39.527 13.18C39.7073 12.9694 39.8419 12.7236 39.9222 12.4582C40.0024 12.1929 40.0267 11.9137 39.9933 11.6385C39.9599 11.3633 39.8697 11.098 39.7284 10.8595C39.587 10.621 39.3976 10.4144 39.1722 10.253C38.9468 10.0916 38.6903 9.97885 38.419 9.92186C38.1476 9.86487 37.8674 9.86491 37.5961 9.92199C37.3248 9.97906 37.0683 10.0919 36.843 10.2534C36.6176 10.4149 36.4283 10.6214 36.287 10.86L32.287 16.46C32.2114 16.5582 32.1021 16.6249 31.9801 16.6471C31.8582 16.6693 31.7323 16.6453 31.627 16.58L28.587 14.78C28.1565 14.5269 27.6469 14.444 27.1583 14.5476C26.6698 14.6512 26.2377 14.9339 25.947 15.34L21.327 21.86C21.0804 22.202 20.9602 22.6191 20.987 23.04C20.9757 23.1263 20.9757 23.2137 20.987 23.3C21.4457 23.7858 21.8732 24.3002 22.267 24.84L22.487 24.96Z" fill="white"/>
        </svg>
