                    <svg class="service-icons mb-2 mb-lg-0" viewBox="0 0 47 48" fill="none" xmlns="http://www.w3.org/2000/svg">
                        <path d="M18.8032 16.1291L23.4784 20.8043C24.9918 22.3087 27.4358 22.3087 28.949 20.8043L42.1212 7.61286C42.3136 7.43766 42.6078 7.43766 42.8002 7.61286L44.9146 9.72726C45.0932 9.90866 45.3394 10.0071 45.5936 9.99886C45.715 10.0265 45.841 10.0265 45.9622 9.99886C46.3448 9.84246 46.5862 9.46086 46.5636 9.04826V1.28866C46.5636 0.75286 46.1294 0.31866 45.5936 0.31866H37.834C37.4144 0.28766 37.0226 0.53046 36.864 0.92006C36.7076 1.27926 36.793 1.69806 37.0774 1.96766L39.3664 4.17906C39.5624 4.36306 39.5624 4.67426 39.3664 4.85806L33.5466 10.6779C28.3242 -1.70614 11.654 -3.79274 3.54037 6.92206C1.15377 10.0739 -0.0926323 13.9423 0.00536771 17.8945C0.00896771 18.5427 0.0477677 19.1903 0.121768 19.8343C0.239968 20.8139 1.07497 21.5487 2.06157 21.5415H2.29437C3.36137 21.4199 4.12657 20.4547 4.00157 19.3883C3.97197 18.8583 3.97197 18.3273 4.00157 17.7975C4.34557 7.25986 15.9676 1.04626 24.9214 6.61286C27.5584 8.25226 29.56 10.7391 30.598 13.6655L26.563 17.7587C26.3642 17.9365 26.0634 17.9365 25.8646 17.7587L21.1894 13.0447C19.676 11.5403 17.232 11.5403 15.7188 13.0447L0.587168 28.1567C-0.465632 29.2169 0.0241678 31.0193 1.46897 31.4009C2.13937 31.5781 2.85337 31.3841 3.34197 30.8919L4.46717 29.7669C7.86157 33.4257 12.6098 35.5299 17.6004 35.5867C21.458 35.5955 25.2098 34.3267 28.27 31.9783C28.4562 31.8255 28.7242 31.8255 28.9102 31.9783L31.6262 34.6943C31.759 34.8259 31.8042 35.0221 31.7426 35.1987C31.3628 36.2537 31.6274 37.4333 32.4216 38.2249L39.9484 45.7713C41.9578 47.9809 45.6058 47.1867 46.5148 44.3417C46.9784 42.8905 46.5498 41.3023 45.419 40.2813L37.9116 32.6961C37.364 32.1537 36.6258 31.8475 35.8552 31.8425C35.524 31.8423 35.1956 31.9015 34.8852 32.0171C34.7088 32.0789 34.5126 32.0335 34.3808 31.9007L31.665 29.1849C31.5042 29.0017 31.5042 28.7277 31.665 28.5447C32.8492 26.9793 33.7668 25.2293 34.3808 23.3651C34.8968 21.9637 33.7022 20.5293 32.2306 20.7831C31.4964 20.9099 30.8996 21.4459 30.695 22.1623C28.8494 27.7989 23.5898 31.6107 17.6588 31.6097C13.7172 31.5813 9.96477 29.9159 7.29937 27.0121L18.163 16.1291C18.3462 15.9683 18.6202 15.9683 18.8032 16.1291Z" fill="white"/>
                    </svg>