<svg width="98" height="37" viewBox="0 0 98 37" fill="none" xmlns="http://www.w3.org/2000/svg">
<path d="M28.9546 8.16064L29.8432 28.0423H25.6559L25.3454 20.4576L15.4312 35.2243L11.1277 21.3638L4.54106 37.0002H0L11.6859 9.2575L16.813 25.7201L28.9546 8.16064Z" fill="#0B0D21"/>
<path d="M19.5874 0C29.7108 0 37.9173 8.2112 37.9173 18.3402C37.9173 26.0044 33.2188 32.5706 26.5467 35.3124L26.5466 32.7205C31.8771 30.1332 35.5522 24.6661 35.5522 18.3402C35.5522 9.51817 28.4045 2.36648 19.5874 2.36648C10.7704 2.36648 3.62271 9.51817 3.62271 18.3402C3.62271 22.0268 4.8709 25.4217 6.96749 28.125L5.35109 28.1247L5.35081 29.8934C2.79139 26.7398 1.25757 22.7192 1.25757 18.3402C1.25757 8.2112 9.46413 0 19.5874 0Z" fill="#0B0D21"/>
<path fill-rule="evenodd" clip-rule="evenodd" d="M26.7469 32.6416L25.6367 32.0852H23.21V35.7945H25.6367L26.7469 35.224V32.6416Z" fill="#0B0D21"/>
<path d="M23.2099 32.6416H20.7957V33.5689H23.2099V32.6416Z" fill="#0B0D21"/>
<path d="M23.2099 34.311H20.7957V35.2384H23.2099V34.311Z" fill="#0B0D21"/>
<path d="M48.5587 15.0149L47.7557 13.2018L47.3891 15.0149L46.202 20.9947H44.2643L46.9178 8.18091H47.1273L50.6536 15.1021L51.701 17.4208L52.7484 15.1021L56.2049 8.18091H56.397L59.1552 20.9947H57.2349L55.9431 15.0149L55.559 13.2018L54.8607 15.0149L51.7534 20.9947H51.6486L48.5587 15.0149ZM64.1702 21.169C63.4486 21.169 62.7823 20.9976 62.1713 20.6547C61.5603 20.3118 61.0716 19.8237 60.705 19.1903C60.3384 18.5568 60.1551 17.8159 60.1551 16.9675C60.1551 16.1307 60.3151 15.3985 60.6351 14.7708C60.9552 14.1432 61.412 13.6551 62.0055 13.3064C62.599 12.9577 63.2973 12.7834 64.1003 12.7834C64.5659 12.7834 65.0023 12.8648 65.4096 13.0275C65.817 13.1902 66.1603 13.3907 66.4396 13.6289C66.7189 13.8672 66.9051 14.1025 66.9982 14.335L67.0331 12.9926H68.8312V20.9947H67.0506L67.0157 19.5825C66.8178 20.0009 66.4571 20.3699 65.9333 20.6896C65.4096 21.0092 64.8219 21.169 64.1702 21.169ZM64.4844 19.6C65.1478 19.6 65.7064 19.3704 66.1603 18.9113C66.6142 18.4522 66.8411 17.8508 66.8411 17.1069V16.9849C66.8411 16.4851 66.7364 16.0377 66.5269 15.6425C66.3174 15.2474 66.0323 14.9394 65.6715 14.7185C65.3107 14.4977 64.915 14.3873 64.4844 14.3873C63.7396 14.3873 63.1635 14.6285 62.7562 15.1108C62.3488 15.5931 62.1452 16.2178 62.1452 16.9849C62.1452 17.7636 62.3459 18.3941 62.7474 18.8765C63.1489 19.3588 63.7279 19.6 64.4844 19.6ZM70.9057 12.9926H72.7911V14.5616C72.9773 14.027 73.2798 13.597 73.6988 13.2715C74.1178 12.9461 74.5949 12.7834 75.1303 12.7834C75.5027 12.7834 75.7587 12.8183 75.8984 12.888L75.6365 14.7883C75.5318 14.7185 75.3049 14.6837 74.9557 14.6837C74.4087 14.6837 73.9112 14.858 73.4631 15.2067C73.0151 15.5554 72.7911 16.1132 72.7911 16.8803V20.9947H70.9057V12.9926ZM76.8944 12.9926H79.0416L80.7699 16.6014L81.3285 18.0484L81.8871 16.6014L83.5979 12.9926H85.6927L81.4856 20.9947H81.119L76.8944 12.9926ZM90.476 21.169C89.5216 21.169 88.7244 20.9801 88.0843 20.6024C87.4443 20.2247 86.9729 19.7191 86.6703 19.0857C86.3677 18.4522 86.2164 17.7578 86.2164 17.0023C86.2164 16.1539 86.3939 15.4101 86.7489 14.7708C87.1039 14.1316 87.5956 13.6406 88.224 13.2977C88.8525 12.9548 89.5624 12.7834 90.3538 12.7834C91.5874 12.7834 92.5039 13.1234 93.1032 13.8033C93.7026 14.4832 94.0023 15.4391 94.0023 16.6711C94.0023 16.9849 93.9848 17.3103 93.9499 17.6474H88.1891C88.3171 18.3564 88.5702 18.8677 88.9485 19.1816C89.3267 19.4954 89.8533 19.6523 90.5283 19.6523C91.087 19.6523 91.5467 19.6058 91.9074 19.5128C92.2682 19.4198 92.5999 19.292 92.9025 19.1293L93.4786 20.4716C93.1876 20.6576 92.7919 20.8203 92.2915 20.9598C91.7911 21.0993 91.1859 21.169 90.476 21.169ZM92.1693 16.3399C92.1809 15.6193 92.0238 15.1108 91.698 14.8144C91.3721 14.518 90.9066 14.3699 90.3014 14.3699C89.0794 14.3699 88.3753 15.0265 88.1891 16.3399H92.1693ZM96.132 8.18091H97.9999V20.9947H96.132V8.18091ZM44.0776 24.8407H45.3646C45.6829 24.8407 45.9223 24.9388 46.083 25.1351C46.2437 25.3314 46.324 25.5698 46.324 25.8502C46.324 26.1306 46.2437 26.3682 46.083 26.5629C45.9223 26.7577 45.6829 26.855 45.3646 26.855H44.5176V28.0609H44.0776V24.8407ZM45.3599 25.2473H44.5176V26.4484H45.3365C45.5206 26.4484 45.6587 26.39 45.7507 26.2732C45.8428 26.1563 45.8888 26.0153 45.8888 25.8502C45.8888 25.6851 45.8443 25.5433 45.7554 25.4249C45.6665 25.3065 45.5347 25.2473 45.3599 25.2473ZM47.0934 26.4578C47.0934 25.9966 47.251 25.6056 47.5661 25.2847C47.8812 24.9637 48.2665 24.8033 48.7221 24.8033C49.1807 24.8033 49.5683 24.9637 49.885 25.2847C50.2017 25.6056 50.36 25.9966 50.36 26.4578C50.36 26.9158 50.2017 27.3053 49.885 27.6262C49.5683 27.9471 49.1807 28.1076 48.7221 28.1076C48.2665 28.1076 47.8812 27.9471 47.5661 27.6262C47.251 27.3053 47.0934 26.9158 47.0934 26.4578ZM47.875 25.5838C47.6441 25.8237 47.5287 26.115 47.5287 26.4578C47.5287 26.8005 47.6433 27.0911 47.8726 27.3294C48.102 27.5678 48.3851 27.687 48.7221 27.687C49.059 27.687 49.3429 27.5678 49.5738 27.3294C49.8047 27.0911 49.9201 26.8005 49.9201 26.4578C49.9201 26.115 49.8047 25.8237 49.5738 25.5838C49.3429 25.3439 49.059 25.2239 48.7221 25.2239C48.3882 25.2239 48.1059 25.3439 47.875 25.5838ZM54.5973 24.8407H55.0653L53.9749 28.0609H53.5958L53.0248 26.0512L52.4586 28.0609H52.0795L50.989 24.8407H51.457L52.2667 27.3598L52.861 25.2753H53.1933L53.7877 27.3598L54.5973 24.8407ZM55.9657 24.8407H57.8752V25.2473H56.401V26.2755H57.688V26.6821H56.401V27.6542H57.922V28.0609H55.9657V24.8407ZM60.3528 26.841L61.2139 28.0609H60.685L59.852 26.855H59.4402V28.0609H59.0002V24.8407H60.2404C60.5587 24.8407 60.7973 24.9388 60.9565 25.1351C61.1156 25.3314 61.1951 25.5698 61.1951 25.8502C61.1951 26.1119 61.1257 26.3363 60.9869 26.5232C60.848 26.7102 60.6367 26.8161 60.3528 26.841ZM60.2264 25.2473H59.4402V26.4484H60.2077C60.3917 26.4484 60.5275 26.3908 60.6148 26.2755C60.7022 26.1602 60.7459 26.0184 60.7459 25.8502C60.7459 25.6851 60.703 25.5433 60.6172 25.4249C60.5314 25.3065 60.4011 25.2473 60.2264 25.2473ZM66.403 25.2286L66.0895 25.5184C65.8648 25.319 65.6059 25.2192 65.3126 25.2192C64.9788 25.2192 64.6964 25.34 64.4655 25.5815C64.2346 25.8229 64.1192 26.115 64.1192 26.4578C64.1192 26.8005 64.2346 27.0918 64.4655 27.3318C64.6964 27.5717 64.9788 27.6916 65.3126 27.6916C65.6059 27.6916 65.8477 27.613 66.038 27.4556C66.2283 27.2983 66.3297 27.0872 66.3422 26.8223H65.4249V26.4438H66.8383C66.8383 26.9953 66.7026 27.4104 66.4311 27.6893C66.1597 27.9682 65.7868 28.1076 65.3126 28.1076C64.8571 28.1076 64.4718 27.9471 64.1567 27.6262C63.8415 27.3053 63.684 26.9158 63.684 26.4578C63.684 25.9966 63.8415 25.6056 64.1567 25.2847C64.4718 24.9637 64.8571 24.8033 65.3126 24.8033C65.7338 24.8033 66.0973 24.9451 66.403 25.2286ZM69.1755 26.841L70.0366 28.0609H69.5077L68.6747 26.855H68.2629V28.0609H67.823V24.8407H69.0631C69.3814 24.8407 69.6201 24.9388 69.7792 25.1351C69.9383 25.3314 70.0179 25.5698 70.0179 25.8502C70.0179 26.1119 69.9484 26.3363 69.8096 26.5232C69.6708 26.7102 69.4594 26.8161 69.1755 26.841ZM69.0491 25.2473H68.2629V26.4484H69.0304C69.2145 26.4484 69.3502 26.3908 69.4375 26.2755C69.5249 26.1602 69.5686 26.0184 69.5686 25.8502C69.5686 25.6851 69.5257 25.5433 69.4399 25.4249C69.3541 25.3065 69.2238 25.2473 69.0491 25.2473ZM70.8996 26.4578C70.8996 25.9966 71.0571 25.6056 71.3723 25.2847C71.6874 24.9637 72.0727 24.8033 72.5282 24.8033C72.9868 24.8033 73.3745 24.9637 73.6912 25.2847C74.0079 25.6056 74.1662 25.9966 74.1662 26.4578C74.1662 26.9158 74.0079 27.3053 73.6912 27.6262C73.3745 27.9471 72.9868 28.1076 72.5282 28.1076C72.0727 28.1076 71.6874 27.9471 71.3723 27.6262C71.0571 27.3053 70.8996 26.9158 70.8996 26.4578ZM71.6811 25.5838C71.4503 25.8237 71.3348 26.115 71.3348 26.4578C71.3348 26.8005 71.4495 27.0911 71.6788 27.3294C71.9081 27.5678 72.1912 27.687 72.5282 27.687C72.8652 27.687 73.1491 27.5678 73.38 27.3294C73.6108 27.0911 73.7263 26.8005 73.7263 26.4578C73.7263 26.115 73.6108 25.8237 73.38 25.5838C73.1491 25.3439 72.8652 25.2239 72.5282 25.2239C72.1944 25.2239 71.912 25.3439 71.6811 25.5838ZM75.8482 27.4813C75.9917 27.6184 76.1664 27.687 76.3723 27.687C76.5783 27.687 76.753 27.6184 76.8965 27.4813C77.04 27.3442 77.1118 27.1682 77.1118 26.9532V24.8407H77.5517V26.9532C77.5517 27.2959 77.437 27.574 77.2077 27.7874C76.9784 28.0009 76.6999 28.1076 76.3723 28.1076C76.0447 28.1076 75.7663 28.0009 75.537 27.7874C75.3077 27.574 75.193 27.2959 75.193 26.9532V24.8407H75.6329V26.9532C75.6329 27.1682 75.7047 27.3442 75.8482 27.4813ZM80.0761 24.8407C80.3943 24.8407 80.6338 24.9388 80.7945 25.1351C80.9551 25.3314 81.0355 25.5698 81.0355 25.8502C81.0355 26.1306 80.9551 26.3682 80.7945 26.5629C80.6338 26.7577 80.3943 26.855 80.0761 26.855H79.229V28.0609H78.7891V24.8407H80.0761ZM80.0714 25.2473H79.229V26.4484H80.048C80.2321 26.4484 80.3701 26.39 80.4622 26.2732C80.5542 26.1563 80.6002 26.0153 80.6002 25.8502C80.6002 25.6851 80.5558 25.5433 80.4669 25.4249C80.3779 25.3065 80.2461 25.2473 80.0714 25.2473Z" fill="#0B0D21"/>
</svg>
